<svg xmlns="http://www.w3.org/2000/svg" viewBox="0 0 404.08 445"><defs><style>.cls-1{fill:none;stroke:#fff;stroke-miterlimit:10;stroke-width:20px;}.cls-2{fill:#fff;}</style></defs><g id="Layer_2" data-name="Layer 2"><g id="Layer_1-2" data-name="Layer 1"><g id="Layer_2-2" data-name="Layer 2"><g id="Layer_1-2-2" data-name="Layer 1-2"><path class="cls-1" d="M91.85,253.15H46.66A8.51,8.51,0,0,0,38.11,260l-28,165.69c-.84,4.88,3.22,9.33,8.54,9.33H385.43c5.31,0,9.33-4.44,8.55-9.33L366.29,260.32a8.48,8.48,0,0,0-8.5-6.85l-45.62-.32"/><path class="cls-2" d="M202,0A129.47,129.47,0,0,0,72.55,129.47v0c0,68.55,91.31,191,125.93,237.43a5.11,5.11,0,0,0,7.16,1.08,5.26,5.26,0,0,0,1.08-1.08c39.91-54.57,124.81-168.34,124.81-237.39A129.48,129.48,0,0,0,202.1,0Zm58,139.59-44.32,25.6-44.33,25.59a9.33,9.33,0,0,1-14-8.09V80.33a9.33,9.33,0,0,1,14-8.09l44.33,25.59L260,123.43a9.31,9.31,0,0,1,0,16.16Z"/></g></g></g></g></svg>